<?xml version="1.0" standalone="no"?>
<!DOCTYPE svg PUBLIC "-//W3C//DTD SVG 20010904//EN"
 "http://www.w3.org/TR/2001/REC-SVG-20010904/DTD/svg10.dtd">
<svg version="1.0" xmlns="http://www.w3.org/2000/svg"
 width="700.000000pt" height="700.000000pt" viewBox="0 0 700.000000 700.000000"
 preserveAspectRatio="xMidYMid meet">
<metadata>
Created by potrace 1.14, written by Peter Selinger 2001-2017
</metadata>
<g transform="translate(0.000000,700.000000) scale(0.100000,-0.100000)"
fill="#000000" stroke="none">
<path d="M1360 6984 c-146 -23 -231 -42 -316 -69 -112 -37 -278 -117 -369
-178 -380 -256 -620 -661 -665 -1126 -13 -136 -13 -4094 0 -4236 25 -269 122
-530 277 -749 90 -126 249 -280 383 -369 170 -112 316 -175 535 -229 l90 -22
2150 -4 c1495 -2 2175 0 2232 8 339 44 643 195 883 439 255 259 398 573 431
946 6 69 9 875 7 2175 -4 2269 0 2116 -63 2335 -156 536 -588 933 -1154 1058
l-96 21 -2150 2 c-1182 1 -2161 0 -2175 -2z m2380 -970 c123 -31 278 -108 355
-176 84 -74 1191 -1218 1261 -1303 239 -290 400 -676 444 -1065 7 -64 10 -448
8 -1182 l-3 -1086 -30 -43 c-17 -24 -53 -57 -80 -74 l-48 -30 -1881 0 -1881 0
-84 22 c-280 75 -495 283 -583 563 l-23 75 0 880 c0 961 -2 927 60 1162 71
270 221 565 395 778 32 39 326 345 654 682 496 509 610 621 679 667 232 154
488 198 757 130z"/>
<path d="M3350 5664 c-120 -31 -177 -69 -310 -203 -438 -442 -1083 -1113
-1132 -1178 -194 -253 -312 -545 -348 -863 -7 -63 -10 -360 -8 -880 l3 -785
23 -58 c45 -112 133 -196 250 -241 l57 -21 1752 -3 1752 -2 28 24 28 24 3 844
c3 888 -3 1104 -38 1270 -45 216 -129 415 -257 607 -66 99 -125 165 -428 475
-777 797 -894 911 -965 945 -36 18 -90 38 -120 46 -70 19 -218 18 -290 -1z
m293 -438 c48 -23 123 -97 504 -494 606 -630 617 -643 690 -754 74 -113 119
-207 162 -341 65 -204 64 -184 68 -1049 l4 -788 -1513 0 c-1492 0 -1513 0
-1546 20 -18 11 -41 34 -52 52 -19 32 -20 52 -20 753 0 777 2 803 55 990 34
119 139 331 212 427 62 81 1056 1124 1106 1160 92 65 226 75 330 24z"/>
<path d="M3936 3155 c-193 -49 -346 -197 -401 -388 -22 -76 -22 -208 0 -284
73 -252 305 -416 565 -400 228 15 411 154 488 371 21 58 25 90 25 171 0 81 -4
113 -25 171 -58 165 -181 287 -344 345 -79 27 -228 34 -308 14z"/>
</g>
</svg>
