<?xml version="1.0" standalone="no"?>
<!DOCTYPE svg PUBLIC "-//W3C//DTD SVG 20010904//EN"
 "http://www.w3.org/TR/2001/REC-SVG-20010904/DTD/svg10.dtd">
<svg version="1.0" xmlns="http://www.w3.org/2000/svg"
 width="968.000000pt" height="968.000000pt" viewBox="0 0 968.000000 968.000000"
 preserveAspectRatio="xMidYMid meet">
<metadata>
Created by potrace 1.14, written by Peter Selinger 2001-2017
</metadata>
<g transform="translate(0.000000,968.000000) scale(0.100000,-0.100000)"
fill="#000000" stroke="none">
<path d="M1925 9619 c-716 -68 -1351 -504 -1665 -1144 -74 -152 -103 -228
-145 -390 -75 -289 -69 -13 -73 -3170 -2 -1993 0 -2868 8 -2960 55 -650 389
-1217 930 -1580 97 -64 329 -180 440 -220 113 -40 257 -74 403 -96 128 -18
214 -19 3017 -19 3095 0 2959 -2 3190 50 217 48 489 164 670 285 541 363 875
930 930 1580 8 92 10 966 8 2960 -4 3160 3 2880 -74 3174 -219 841 -944 1449
-1824 1530 -141 13 -5678 13 -5815 0z m3095 -1543 c91 -17 208 -55 296 -98
124 -61 96 -32 1310 -1293 562 -584 545 -566 641 -692 192 -255 337 -561 417
-884 74 -297 69 -166 73 -1857 l4 -1522 -2578 2 -2578 3 -88 28 c-280 87 -468
268 -564 542 l-28 80 0 1185 0 1185 23 128 c62 342 178 651 349 931 112 182
223 316 498 600 1038 1074 1394 1437 1448 1478 211 161 510 232 777 184z"/>
<path d="M4708 7805 c-96 -18 -194 -57 -267 -106 -36 -24 -316 -304 -757 -756
-946 -971 -960 -985 -1036 -1088 -218 -296 -357 -616 -425 -980 l-27 -140 -3
-1132 c-4 -1250 -6 -1203 59 -1325 39 -74 142 -171 221 -208 32 -16 89 -33
125 -40 48 -7 760 -10 2472 -8 l2405 3 3 1300 c2 909 -1 1330 -8 1400 -27 240
-68 404 -156 623 -112 280 -251 492 -480 734 -378 399 -1511 1558 -1557 1592
-65 49 -174 101 -252 121 -88 23 -226 27 -317 10z m284 -403 c32 -11 80 -35
107 -54 28 -18 307 -301 622 -628 989 -1029 942 -977 1052 -1143 129 -193 216
-390 277 -632 66 -260 65 -233 65 -1450 l0 -1100 -2190 0 -2190 0 -42 22 c-51
28 -100 86 -114 136 -6 24 -9 395 -6 1080 3 1136 1 1085 62 1328 81 317 258
641 479 877 180 192 1339 1398 1397 1454 101 98 209 140 344 134 47 -2 103
-11 137 -24z"/>
<path d="M5520 4304 c-225 -48 -414 -194 -513 -397 -62 -125 -81 -217 -75
-365 8 -201 76 -352 223 -498 66 -66 99 -90 176 -128 133 -65 200 -81 344 -80
137 0 210 16 322 70 147 70 263 187 339 339 61 124 78 197 78 330 0 133 -17
206 -78 330 -148 302 -491 469 -816 399z"/>
</g>
</svg>
