<?xml version="1.0" encoding="utf-8"?>
<!-- Generator: Adobe Illustrator 23.0.0, SVG Export Plug-In . SVG Version: 6.00 Build 0)  -->
<svg version="1.1" id="레이어_1" xmlns="http://www.w3.org/2000/svg" xmlns:xlink="http://www.w3.org/1999/xlink" x="0px"
	 y="0px" viewBox="0 0 120 120" style="enable-background:new 0 0 120 120;" xml:space="preserve">
<style type="text/css">
	.st0{fill:#CEB97B;}
	.st1{opacity:0.4;fill:#FFFFFF;enable-background:new    ;}
	.st2{fill:#EA5639;}
	.st3{fill:#FFFFFF;}
</style>
<path class="st0" d="M0,26.1c0-14.4,11.6-26,26-26h68c14.4,0,26,11.6,26,26v68c0,14.4-11.6,26-26,26H26c-14.4,0-26-11.6-26-26V26.1z
	"/>
<path class="st1" d="M80.6,48.8L64.2,31.7c-1-1.1-2.6-1.9-4.2-1.9c-1.6,0-3.1,0.7-4.2,1.9L39.4,48.8c-4.1,4.5-6.2,10.2-6.2,16.2
	v21.6c0,1.4,1.1,2.6,2.6,2.6h51.1V65.1C86.8,59,84.7,53.2,80.6,48.8z M69.8,84.1c-4.9,0-8.8-4-8.8-8.8c0-4.9,4-8.8,8.8-8.8
	s8.8,4,8.8,8.8C78.6,80.2,74.7,84.1,69.8,84.1z"/>
<ellipse class="st2" cx="69.7" cy="75" rx="9.4" ry="9.3"/>
<g>
	<path class="st3" d="M90.6,40.9L72.2,21.9c-1.2-1.3-2.4-2.4-3.7-3.2c-0.1,0-0.1-0.1-0.2-0.1c-2.5-1.4-5.4-2.2-8.2-2.2
		c-4.6,0-9,2-12,5.4L29.3,41.1c-5.7,6.5-8.9,14.8-8.9,23.3v23.6c0,7.7,6.2,13.9,13.9,13.9h61.4c2.2,0,3.9-1.8,3.9-3.9V64.4
		C99.6,55.6,96.4,47.3,90.6,40.9z M93.4,94.1c0,0.8-0.6,1.4-1.4,1.4H33.8c-4.1,0-7.3-3.2-7.3-7.3V64.4c0-7,2.6-13.8,7.3-19.3
		l18.5-19c0.5-0.6,1.5-1.6,2.7-2.3c1.5-0.8,3.2-1.3,4.9-1.3c2.8,0,5.5,1.2,7.4,3.3L86.1,45c4.7,5.3,7.3,12.1,7.3,19.2V94.1z"/>
</g>
</svg>
