<?xml version="1.0" encoding="utf-8"?>
<!-- Generator: Adobe Illustrator 23.0.0, SVG Export Plug-In . SVG Version: 6.00 Build 0)  -->
<svg version="1.1" id="레이어_1" xmlns="http://www.w3.org/2000/svg" xmlns:xlink="http://www.w3.org/1999/xlink" x="0px"
	 y="0px" viewBox="0 0 120 121" style="enable-background:new 0 0 120 121;" xml:space="preserve">
<style type="text/css">
	.st0{fill:#D8C68F;}
	.st1{opacity:0.4;fill:#FFFFFF;}
	.st2{fill:#EA5639;}
	.st3{fill:#FFFFFF;}
</style>
<path class="st0" d="M0,26.6c0-14.4,11.6-26,26-26h68c14.4,0,26,11.6,26,26v68c0,14.4-11.6,26-26,26H26c-14.4,0-26-11.6-26-26V26.6z
	"/>
<path class="st1" d="M81.8,48.2L64.4,30.1c-1.1-1.2-2.7-2-4.4-2s-3.3,0.7-4.4,2L38.2,48.2C33.9,53,31.6,59,31.6,65.4v22.9
	c0,1.5,1.2,2.8,2.8,2.8h54.1V65.4C88.4,59,86.1,52.9,81.8,48.2z M70.4,85.6c-5.2,0-9.3-4.2-9.3-9.3c0-5.2,4.2-9.3,9.3-9.3
	s9.3,4.2,9.3,9.3C79.7,81.4,75.6,85.6,70.4,85.6z"/>
<ellipse class="st2" cx="70.5" cy="76.3" rx="6.8" ry="6.7"/>
<g>
	<path class="st3" d="M33.7,99.3H90h2.6h3.9V65c0-7.9-2.8-15.4-8.1-21.2L69.5,24.2c-0.9-1-1.9-1.9-3-2.6c-5.6-3.1-12.1-1.8-15.8,2.5
		L31.6,43.8c-5.2,5.9-8.1,13.4-8.1,21.2v24.1C23.5,94.8,28.1,99.3,33.7,99.3z M26.8,65c0-7,2.6-13.7,7.2-19L53,26.5
		c0.7-0.8,1.6-1.6,2.5-2.1c4-2.2,8.6-1.2,11.4,1.9l19,19.6c4.6,5.2,7.2,12,7.2,19v30.5c0,0.2-0.2,0.4-0.4,0.4H33.2
		c-3.6,0-6.4-2.8-6.4-6.4V65z"/>
</g>
</svg>
