<?xml version="1.0" encoding="utf-8"?>
<!-- Generator: Adobe Illustrator 23.0.0, SVG Export Plug-In . SVG Version: 6.00 Build 0)  -->
<svg version="1.1" id="레이어_1" xmlns="http://www.w3.org/2000/svg" xmlns:xlink="http://www.w3.org/1999/xlink" x="0px"
	 y="0px" viewBox="0 0 130 38" style="enable-background:new 0 0 130 38;" xml:space="preserve">
<style type="text/css">
	.st0{fill:#191A20;}
</style>
<path class="st0" d="M94.2,36H98V1h-3.8V36z M78.7,23.8c5.8,0,10.1-4.5,10.1-11s-4.2-11-10.1-11s-10.1,4.5-10.1,11
	S72.8,23.8,78.7,23.8z M78.7,20.1c-3.9,0-6.4-3.2-6.4-7.3c0-4.2,2.5-7.4,6.4-7.4c3.8,0,6.4,3.2,6.4,7.4
	C85.1,16.9,82.5,20.1,78.7,20.1z M67.5,33.9h13.1c4.7,0,8.7-0.6,10.9-1.7v-3.8c-2.2,1.1-6.2,1.6-10.7,1.6H67.5V33.9z"/>
<path class="st0" d="M126.2,1v18.2h3.8V1H126.2z M111.3,12.3l9.9,6.2l1.8-3l-10.2-6.3c0.4-1.2,0.7-2.5,0.8-3.9h8.4V1.9h-21.1v3.4
	h8.9c-0.5,5.2-3.9,9.1-9.3,9.9v3.6C105.2,18.3,109.1,15.9,111.3,12.3z M126.3,24.6h-20.2v-3.9h-3.7v14.8H130V20.7h-3.7V24.6z
	 M106.1,32.2v-4.3h20.2v4.3H106.1z"/>
<path d="M32.9,30.5v3.8H0v-3.8h14.5v-9.1H2.2V1.9h3.9v15.7h24.8v3.8H18.4v9.1H32.9z"/>
<path d="M33.5,15.9h32.9V19H33.5V15.9z M35.4,7.3c0-4.6,6.5-6.3,14.5-6.3s14.5,1.7,14.5,6.3c0,4.7-6.5,6.4-14.5,6.4
	S35.4,12,35.4,7.3z M35.7,27.3h24.6v-2.5H35.7v-3h28.4v8.3H39.5v2.5h25.2v3h-29V27.3z M60.4,7.3C60.4,5,55.6,4,49.9,4
	S39.4,5,39.4,7.3s4.8,3.3,10.5,3.3S60.4,9.7,60.4,7.3z"/>
</svg>
